# MagicaVoxel @ Ephtracy

# group
o 

# material
mtllib circuit_tile11.mtl
usemtl palette

# normals
vn -1 0 0
vn 1 0 0
vn 0 0 1
vn 0 0 -1
vn 0 -1 0
vn 0 1 0

# texcoords
vt 0.974609 0.5
vt 0.978516 0.5
vt 0.986328 0.5
vt 0.994141 0.5

# verts
v -0.3 0 0.3
v -0.3 0 -0.2
v -0.3 0.1 0.3
v -0.3 0.1 -0.2
v -0.3 0.2 0.3
v -0.3 0.2 -0.2
v -0.3 0.4 0.3
v -0.3 0.4 -0.2
v 0 0.2 0
v 0 0.2 -0.1
v 0 0.2 -0.2
v 0 0.4 0
v 0 0.4 -0.1
v 0 0.4 -0.2
v 0.2 0 0.3
v 0.2 0 -0.2
v 0.2 0.1 0.3
v 0.2 0.1 -0.2
v 0.2 0.2 0.3
v 0.2 0.2 0
v 0.2 0.2 -0.2
v 0.2 0.4 0.3
v 0.2 0.4 0
v -0.3 0 0.3
v -0.3 0.1 0.3
v -0.3 0.2 0.3
v -0.3 0.4 0.3
v 0.2 0 0.3
v 0.2 0.1 0.3
v 0.2 0.2 0.3
v 0.2 0.4 0.3
v 0 0.2 0
v 0 0.4 0
v 0.1 0.2 0
v 0.1 0.4 0
v 0.2 0.2 0
v 0.2 0.4 0
v -0.3 0 -0.2
v -0.3 0.1 -0.2
v -0.3 0.2 -0.2
v -0.3 0.4 -0.2
v 0 0.2 -0.2
v 0 0.4 -0.2
v 0.2 0 -0.2
v 0.2 0.1 -0.2
v 0.2 0.2 -0.2
v -0.3 0 0.3
v 0.2 0 0.3
v -0.3 0 -0.2
v 0.2 0 -0.2
v 0 0.2 0
v 0.1 0.2 0
v 0.2 0.2 0
v 0 0.2 -0.1
v 0 0.2 -0.2
v 0.2 0.2 -0.2
v -0.3 0.4 0.3
v 0.2 0.4 0.3
v -0.2 0.4 0.2
v 0.1 0.4 0.2
v 0 0.4 0
v 0.1 0.4 0
v 0.2 0.4 0
v -0.2 0.4 -0.1
v 0 0.4 -0.1
v -0.3 0.4 -0.2
v 0 0.4 -0.2

# faces
f 3/4/1 2/4/1 1/4/1
f 4/4/1 2/4/1 3/4/1
f 5/2/1 4/2/1 3/2/1
f 6/2/1 4/2/1 5/2/1
f 7/1/1 6/1/1 5/1/1
f 8/1/1 6/1/1 7/1/1
f 9/3/2 10/3/2 12/3/2
f 10/1/2 11/1/2 13/1/2
f 12/3/2 10/3/2 13/3/2
f 13/1/2 11/1/2 14/1/2
f 15/4/2 16/4/2 17/4/2
f 17/4/2 16/4/2 18/4/2
f 17/2/2 18/2/2 19/2/2
f 19/2/2 18/2/2 20/2/2
f 20/2/2 18/2/2 21/2/2
f 19/1/2 20/1/2 22/1/2
f 22/1/2 20/1/2 23/1/2
f 28/4/3 25/4/3 24/4/3
f 29/2/3 26/2/3 25/2/3
f 29/4/3 25/4/3 28/4/3
f 30/1/3 27/1/3 26/1/3
f 30/2/3 26/2/3 29/2/3
f 31/1/3 27/1/3 30/1/3
f 32/3/4 33/3/4 34/3/4
f 34/3/4 33/3/4 35/3/4
f 34/1/4 35/1/4 36/1/4
f 36/1/4 35/1/4 37/1/4
f 39/2/4 40/2/4 42/2/4
f 40/1/4 41/1/4 42/1/4
f 42/1/4 41/1/4 43/1/4
f 38/4/4 39/4/4 44/4/4
f 39/2/4 42/2/4 45/2/4
f 44/4/4 39/4/4 45/4/4
f 45/2/4 42/2/4 46/2/4
f 49/4/5 48/4/5 47/4/5
f 50/4/5 48/4/5 49/4/5
f 51/2/6 52/2/6 54/2/6
f 52/2/6 53/2/6 54/2/6
f 54/2/6 53/2/6 55/2/6
f 55/2/6 53/2/6 56/2/6
f 57/1/6 58/1/6 59/1/6
f 59/1/6 58/1/6 60/1/6
f 59/3/6 60/3/6 61/3/6
f 60/1/6 58/1/6 62/1/6
f 61/3/6 60/3/6 62/3/6
f 62/1/6 58/1/6 63/1/6
f 57/1/6 59/1/6 64/1/6
f 59/3/6 61/3/6 64/3/6
f 64/3/6 61/3/6 65/3/6
f 57/1/6 64/1/6 66/1/6
f 64/1/6 65/1/6 66/1/6
f 66/1/6 65/1/6 67/1/6
