# MagicaVoxel @ Ephtracy

# group
o 

# material
mtllib circuit_tile10.mtl
usemtl palette

# normals
vn -1 0 0
vn 1 0 0
vn 0 0 1
vn 0 0 -1
vn 0 -1 0
vn 0 1 0

# texcoords
vt 0.978516 0.5
vt 0.982422 0.5
vt 0.990234 0.5
vt 0.994141 0.5

# verts
v -0.3 0 0.3
v -0.3 0 -0.2
v -0.3 0.1 0.3
v -0.3 0.1 -0.2
v -0.3 0.2 0.3
v -0.3 0.2 -0.2
v -0.2 0.2 0.2
v -0.2 0.2 -0.1
v -0.2 0.5 0.2
v -0.2 0.5 -0.1
v -0.1 0.2 0.3
v -0.1 0.2 0.2
v -0.1 0.2 -0.1
v -0.1 0.2 -0.2
v -0.1 0.3 0.3
v -0.1 0.3 0.2
v -0.1 0.3 -0.1
v -0.1 0.3 -0.2
v 0 0.2 0.3
v 0 0.2 0.2
v 0 0.2 -0.1
v 0 0.2 -0.2
v 0 0.3 0.3
v 0 0.3 0.2
v 0 0.3 -0.1
v 0 0.3 -0.2
v 0.1 0.2 0.2
v 0.1 0.2 -0.1
v 0.1 0.5 0.2
v 0.1 0.5 -0.1
v 0.2 0 0.3
v 0.2 0 -0.2
v 0.2 0.1 0.3
v 0.2 0.1 -0.2
v 0.2 0.2 0.3
v 0.2 0.2 -0.2
v -0.3 0 0.3
v -0.3 0.1 0.3
v -0.3 0.2 0.3
v -0.1 0.2 0.3
v -0.1 0.3 0.3
v 0 0.2 0.3
v 0 0.3 0.3
v 0.2 0 0.3
v 0.2 0.1 0.3
v 0.2 0.2 0.3
v -0.2 0.2 0.2
v -0.2 0.5 0.2
v -0.1 0.2 0.2
v -0.1 0.3 0.2
v 0 0.2 0.2
v 0 0.3 0.2
v 0.1 0.2 0.2
v 0.1 0.5 0.2
v -0.2 0.2 -0.1
v -0.2 0.5 -0.1
v -0.1 0.2 -0.1
v -0.1 0.3 -0.1
v 0 0.2 -0.1
v 0 0.3 -0.1
v 0.1 0.2 -0.1
v 0.1 0.5 -0.1
v -0.3 0 -0.2
v -0.3 0.1 -0.2
v -0.3 0.2 -0.2
v -0.1 0.2 -0.2
v -0.1 0.3 -0.2
v 0 0.2 -0.2
v 0 0.3 -0.2
v 0.2 0 -0.2
v 0.2 0.1 -0.2
v 0.2 0.2 -0.2
v -0.3 0 0.3
v 0.2 0 0.3
v -0.3 0 -0.2
v 0.2 0 -0.2
v -0.3 0.2 0.3
v -0.1 0.2 0.3
v 0 0.2 0.3
v 0.2 0.2 0.3
v -0.2 0.2 0.2
v -0.1 0.2 0.2
v 0 0.2 0.2
v 0.1 0.2 0.2
v -0.2 0.2 -0.1
v -0.1 0.2 -0.1
v 0 0.2 -0.1
v 0.1 0.2 -0.1
v -0.3 0.2 -0.2
v -0.1 0.2 -0.2
v 0 0.2 -0.2
v 0.2 0.2 -0.2
v -0.1 0.3 0.3
v 0 0.3 0.3
v -0.1 0.3 0.2
v 0 0.3 0.2
v -0.1 0.3 -0.1
v 0 0.3 -0.1
v -0.1 0.3 -0.2
v 0 0.3 -0.2
v -0.2 0.5 0.2
v 0.1 0.5 0.2
v -0.2 0.5 -0.1
v 0.1 0.5 -0.1

# faces
f 3/4/1 2/4/1 1/4/1
f 4/4/1 2/4/1 3/4/1
f 5/1/1 4/1/1 3/1/1
f 6/1/1 4/1/1 5/1/1
f 9/3/1 8/3/1 7/3/1
f 10/3/1 8/3/1 9/3/1
f 15/2/1 12/2/1 11/2/1
f 16/2/1 12/2/1 15/2/1
f 17/2/1 14/2/1 13/2/1
f 18/2/1 14/2/1 17/2/1
f 19/2/2 20/2/2 23/2/2
f 23/2/2 20/2/2 24/2/2
f 21/2/2 22/2/2 25/2/2
f 25/2/2 22/2/2 26/2/2
f 27/3/2 28/3/2 29/3/2
f 29/3/2 28/3/2 30/3/2
f 31/4/2 32/4/2 33/4/2
f 33/4/2 32/4/2 34/4/2
f 33/1/2 34/1/2 35/1/2
f 35/1/2 34/1/2 36/1/2
f 40/1/3 39/1/3 38/1/3
f 42/1/3 40/1/3 38/1/3
f 42/2/3 41/2/3 40/2/3
f 43/2/3 41/2/3 42/2/3
f 44/4/3 38/4/3 37/4/3
f 45/1/3 42/1/3 38/1/3
f 45/4/3 38/4/3 44/4/3
f 46/1/3 42/1/3 45/1/3
f 49/3/3 48/3/3 47/3/3
f 50/3/3 48/3/3 49/3/3
f 52/3/3 48/3/3 50/3/3
f 53/3/3 52/3/3 51/3/3
f 54/3/3 48/3/3 52/3/3
f 54/3/3 52/3/3 53/3/3
f 55/3/4 56/3/4 57/3/4
f 57/3/4 56/3/4 58/3/4
f 58/3/4 56/3/4 60/3/4
f 59/3/4 60/3/4 61/3/4
f 60/3/4 56/3/4 62/3/4
f 61/3/4 60/3/4 62/3/4
f 64/1/4 65/1/4 66/1/4
f 64/1/4 66/1/4 68/1/4
f 66/2/4 67/2/4 68/2/4
f 68/2/4 67/2/4 69/2/4
f 63/4/4 64/4/4 70/4/4
f 64/1/4 68/1/4 71/1/4
f 70/4/4 64/4/4 71/4/4
f 71/1/4 68/1/4 72/1/4
f 75/4/5 74/4/5 73/4/5
f 76/4/5 74/4/5 75/4/5
f 77/1/6 78/1/6 81/1/6
f 81/1/6 78/1/6 82/1/6
f 79/1/6 80/1/6 83/1/6
f 83/1/6 80/1/6 84/1/6
f 77/1/6 81/1/6 85/1/6
f 84/1/6 80/1/6 88/1/6
f 85/1/6 86/1/6 89/1/6
f 77/1/6 85/1/6 89/1/6
f 89/1/6 86/1/6 90/1/6
f 87/1/6 88/1/6 91/1/6
f 88/1/6 80/1/6 92/1/6
f 91/1/6 88/1/6 92/1/6
f 93/2/6 94/2/6 95/2/6
f 95/2/6 94/2/6 96/2/6
f 97/2/6 98/2/6 99/2/6
f 99/2/6 98/2/6 100/2/6
f 101/3/6 102/3/6 103/3/6
f 103/3/6 102/3/6 104/3/6
