# MagicaVoxel @ Ephtracy

# group
o 

# material
mtllib circuit_tile4_disabled.mtl
usemtl palette

# normals
vn -1 0 0
vn 1 0 0
vn 0 0 1
vn 0 0 -1
vn 0 -1 0
vn 0 1 0

# texcoords
vt 0.962891 0.5
vt 0.974609 0.5
vt 0.978516 0.5
vt 0.982422 0.5
vt 0.994141 0.5

# verts
v -0.3 0 0.3
v -0.3 0 -0.2
v -0.3 0.1 0.3
v -0.3 0.1 -0.2
v -0.3 0.2 0.3
v -0.3 0.2 0.1
v -0.3 0.2 0
v -0.3 0.2 -0.2
v -0.3 0.3 0.1
v -0.3 0.3 0
v -0.1 0.2 0.3
v -0.1 0.2 0.1
v -0.1 0.3 0.3
v -0.1 0.3 0.1
v -0.1 0.3 0
v -0.1 0.4 0.1
v -0.1 0.4 0
v -0.1 0.5 0.1
v -0.1 0.5 0
v 0 0.2 0.3
v 0 0.2 0.1
v 0 0.3 0.3
v 0 0.3 0.1
v 0 0.3 0
v 0 0.4 0.1
v 0 0.4 0
v 0 0.5 0.1
v 0 0.5 0
v 0.2 0 0.3
v 0.2 0 -0.2
v 0.2 0.1 0.3
v 0.2 0.1 -0.2
v 0.2 0.2 0.3
v 0.2 0.2 0.1
v 0.2 0.2 0
v 0.2 0.2 -0.2
v 0.2 0.3 0.1
v 0.2 0.3 0
v -0.3 0 0.3
v -0.3 0.1 0.3
v -0.3 0.2 0.3
v -0.1 0.2 0.3
v -0.1 0.3 0.3
v 0 0.2 0.3
v 0 0.3 0.3
v 0.2 0 0.3
v 0.2 0.1 0.3
v 0.2 0.2 0.3
v -0.3 0.2 0.1
v -0.3 0.3 0.1
v -0.1 0.2 0.1
v -0.1 0.3 0.1
v -0.1 0.4 0.1
v -0.1 0.5 0.1
v 0 0.2 0.1
v 0 0.3 0.1
v 0 0.4 0.1
v 0 0.5 0.1
v 0.2 0.2 0.1
v 0.2 0.3 0.1
v -0.3 0.2 0
v -0.3 0.3 0
v -0.1 0.2 0
v -0.1 0.3 0
v -0.1 0.4 0
v -0.1 0.5 0
v 0 0.2 0
v 0 0.3 0
v 0 0.4 0
v 0 0.5 0
v 0.2 0.2 0
v 0.2 0.3 0
v -0.3 0 -0.2
v -0.3 0.1 -0.2
v -0.3 0.2 -0.2
v 0.2 0 -0.2
v 0.2 0.1 -0.2
v 0.2 0.2 -0.2
v -0.3 0 0.3
v 0.2 0 0.3
v -0.3 0 -0.2
v 0.2 0 -0.2
v -0.3 0.2 0.3
v -0.1 0.2 0.3
v 0 0.2 0.3
v 0.2 0.2 0.3
v -0.3 0.2 0.1
v -0.1 0.2 0.1
v 0 0.2 0.1
v 0.2 0.2 0.1
v -0.3 0.2 0
v -0.1 0.2 0
v 0 0.2 0
v 0.2 0.2 0
v -0.3 0.2 -0.2
v 0.2 0.2 -0.2
v -0.1 0.3 0.3
v 0 0.3 0.3
v -0.3 0.3 0.1
v -0.1 0.3 0.1
v 0 0.3 0.1
v 0.2 0.3 0.1
v -0.3 0.3 0
v -0.1 0.3 0
v 0 0.3 0
v 0.2 0.3 0
v -0.1 0.5 0.1
v 0 0.5 0.1
v -0.1 0.5 0
v 0 0.5 0

# faces
f 3/5/1 2/5/1 1/5/1
f 4/5/1 2/5/1 3/5/1
f 5/3/1 4/3/1 3/3/1
f 6/3/1 4/3/1 5/3/1
f 7/3/1 4/3/1 6/3/1
f 8/3/1 4/3/1 7/3/1
f 9/4/1 7/4/1 6/4/1
f 10/4/1 7/4/1 9/4/1
f 13/4/1 12/4/1 11/4/1
f 14/4/1 12/4/1 13/4/1
f 16/2/1 15/2/1 14/2/1
f 17/2/1 15/2/1 16/2/1
f 18/1/1 17/1/1 16/1/1
f 19/1/1 17/1/1 18/1/1
f 20/4/2 21/4/2 22/4/2
f 22/4/2 21/4/2 23/4/2
f 23/2/2 24/2/2 25/2/2
f 25/2/2 24/2/2 26/2/2
f 25/1/2 26/1/2 27/1/2
f 27/1/2 26/1/2 28/1/2
f 29/5/2 30/5/2 31/5/2
f 31/5/2 30/5/2 32/5/2
f 31/3/2 32/3/2 33/3/2
f 33/3/2 32/3/2 34/3/2
f 34/3/2 32/3/2 35/3/2
f 35/3/2 32/3/2 36/3/2
f 34/4/2 35/4/2 37/4/2
f 37/4/2 35/4/2 38/4/2
f 42/3/3 41/3/3 40/3/3
f 44/3/3 42/3/3 40/3/3
f 44/4/3 43/4/3 42/4/3
f 45/4/3 43/4/3 44/4/3
f 46/5/3 40/5/3 39/5/3
f 47/3/3 44/3/3 40/3/3
f 47/5/3 40/5/3 46/5/3
f 48/3/3 44/3/3 47/3/3
f 51/4/3 50/4/3 49/4/3
f 52/4/3 50/4/3 51/4/3
f 56/2/3 53/2/3 52/2/3
f 57/1/3 54/1/3 53/1/3
f 57/2/3 53/2/3 56/2/3
f 58/1/3 54/1/3 57/1/3
f 59/4/3 56/4/3 55/4/3
f 60/4/3 56/4/3 59/4/3
f 61/4/4 62/4/4 63/4/4
f 63/4/4 62/4/4 64/4/4
f 63/2/4 64/2/4 67/2/4
f 64/2/4 65/2/4 67/2/4
f 67/2/4 65/2/4 68/2/4
f 65/1/4 66/1/4 69/1/4
f 68/2/4 65/2/4 69/2/4
f 69/1/4 66/1/4 70/1/4
f 67/4/4 68/4/4 71/4/4
f 71/4/4 68/4/4 72/4/4
f 73/5/4 74/5/4 76/5/4
f 74/3/4 75/3/4 77/3/4
f 76/5/4 74/5/4 77/5/4
f 77/3/4 75/3/4 78/3/4
f 81/5/5 80/5/5 79/5/5
f 82/5/5 80/5/5 81/5/5
f 83/3/6 84/3/6 87/3/6
f 87/3/6 84/3/6 88/3/6
f 85/3/6 86/3/6 89/3/6
f 89/3/6 86/3/6 90/3/6
f 91/3/6 92/3/6 95/3/6
f 93/3/6 94/3/6 95/3/6
f 92/3/6 93/3/6 95/3/6
f 95/3/6 94/3/6 96/3/6
f 97/4/6 98/4/6 100/4/6
f 100/4/6 98/4/6 101/4/6
f 99/4/6 100/4/6 103/4/6
f 103/4/6 100/4/6 104/4/6
f 101/4/6 102/4/6 105/4/6
f 105/4/6 102/4/6 106/4/6
f 107/1/6 108/1/6 109/1/6
f 109/1/6 108/1/6 110/1/6
